# Blender v3.5.0 OBJ File: 'mybottle3.blend'
# www.blender.org
mtllib mybottle3.mtl
o Cube.001_Cube.002
v -0.005235 0.049692 0.019214
v -0.005235 0.072268 0.019214
v -0.019881 0.049692 -0.001146
v -0.019881 0.072268 -0.001146
v 0.019881 0.049692 0.001146
v 0.019881 0.072268 0.001146
v 0.005235 0.049692 -0.019214
v 0.005235 0.072268 -0.019214
v -0.003579 -0.131803 -0.001322
v 0.039959 -0.087861 0.027805
v -0.024002 -0.087861 0.051029
v -0.059739 -0.087861 0.001905
v -0.017864 -0.087861 -0.051678
v 0.043753 -0.087861 -0.035671
v 0.010706 -0.016760 0.049034
v -0.050911 -0.016760 0.033027
v -0.047117 -0.016760 -0.030449
v 0.016845 -0.016760 -0.053673
v 0.052582 -0.016760 -0.004549
v -0.003579 0.027182 -0.001322
v -0.015583 -0.119931 0.029449
v 0.022012 -0.119931 0.015798
v 0.010008 -0.094102 0.046569
v 0.049833 -0.094102 -0.004391
v 0.024242 -0.119931 -0.021512
v -0.036589 -0.119931 0.000575
v -0.048594 -0.094102 0.031346
v -0.011975 -0.119931 -0.030920
v -0.044986 -0.094102 -0.029024
v 0.015846 -0.094102 -0.051110
v 0.055023 -0.052310 0.013901
v 0.057253 -0.052310 -0.023409
v -0.007187 -0.052310 0.059047
v 0.030409 -0.052310 0.045397
v -0.064410 -0.052310 0.020764
v -0.043405 -0.052310 0.049639
v -0.037567 -0.052310 -0.048041
v -0.062180 -0.052310 -0.016545
v 0.036247 -0.052310 -0.052283
v 0.000029 -0.052310 -0.061692
v 0.037828 -0.010518 0.026379
v -0.023003 -0.010518 0.048466
v -0.056991 -0.010518 0.001747
v -0.017165 -0.010518 -0.049213
v 0.041436 -0.010518 -0.033990
v 0.004818 0.015310 0.028276
v 0.029432 0.015310 -0.003219
v -0.031400 0.015310 0.018867
v -0.029170 0.015310 -0.018442
v 0.008426 0.015310 -0.032093
v -0.012166 0.011729 0.009327
v -0.012166 0.054750 0.009327
v -0.011144 0.011729 -0.007775
v -0.011144 0.054750 -0.007775
v 0.008948 0.011729 0.008114
v 0.008948 0.054750 0.008114
v 0.009971 0.011729 -0.008988
v 0.009971 0.054750 -0.008988
vt 0.375000 0.000000
vt 0.625000 0.000000
vt 0.625000 0.250000
vt 0.375000 0.250000
vt 0.625000 0.500000
vt 0.375000 0.500000
vt 0.625000 0.750000
vt 0.375000 0.750000
vt 0.625000 1.000000
vt 0.375000 1.000000
vt 0.125000 0.500000
vt 0.125000 0.750000
vt 0.875000 0.500000
vt 0.875000 0.750000
vt 0.181819 0.000000
vt 0.227273 0.078731
vt 0.136365 0.078731
vt 0.272728 0.157461
vt 0.318182 0.078731
vt 0.363637 0.157461
vt 0.909091 0.000000
vt 0.954545 0.078731
vt 0.863636 0.078731
vt 0.727273 0.000000
vt 0.772727 0.078731
vt 0.681818 0.078731
vt 0.545455 0.000000
vt 0.590909 0.078731
vt 0.500000 0.078731
vt 0.318182 0.236191
vt 0.090910 0.157461
vt 0.181819 0.157461
vt 0.136365 0.236191
vt 0.818182 0.157461
vt 0.909091 0.157461
vt 0.863636 0.236191
vt 0.636364 0.157461
vt 0.727273 0.157461
vt 0.681818 0.236191
vt 0.454546 0.157461
vt 0.545455 0.157461
vt 0.500000 0.236191
vt 0.227273 0.236191
vt 0.045455 0.236191
vt 0.772727 0.236191
vt 0.590909 0.236191
vt 0.409092 0.236191
vt 0.181819 0.314921
vt 0.272728 0.314921
vt 0.227273 0.393651
vt 0.000000 0.314921
vt 0.090910 0.314921
vt 0.045455 0.393651
vt 0.727273 0.314921
vt 0.818182 0.314921
vt 0.772727 0.393651
vt 0.545455 0.314921
vt 0.636364 0.314921
vt 0.590909 0.393651
vt 0.363637 0.314921
vt 0.454546 0.314921
vt 0.409092 0.393651
vt 0.500000 0.393651
vt 0.454546 0.472382
vt 0.681818 0.393651
vt 0.636364 0.472382
vt 0.863636 0.393651
vt 0.818182 0.472382
vt 0.909091 0.314921
vt 0.136365 0.393651
vt 0.090910 0.472382
vt 0.318182 0.393651
vt 0.272728 0.472382
vt 0.954545 0.236191
vt 1.000000 0.157461
vt 0.409092 0.078731
vt 0.363637 0.000000
vt 0.375000 0.000000
vt 0.625000 0.000000
vt 0.625000 0.250000
vt 0.375000 0.250000
vt 0.625000 0.500000
vt 0.375000 0.500000
vt 0.625000 0.750000
vt 0.375000 0.750000
vt 0.625000 1.000000
vt 0.375000 1.000000
vt 0.125000 0.500000
vt 0.125000 0.750000
vt 0.875000 0.500000
vt 0.875000 0.750000
vn -0.8118 0.0000 0.5840
vn -0.5840 0.0000 -0.8118
vn 0.8118 0.0000 -0.5840
vn 0.5840 0.0000 0.8118
vn 0.0000 -1.0000 0.0000
vn 0.0000 1.0000 -0.0000
vn 0.1472 -0.9022 0.4055
vn 0.7605 -0.5530 0.3404
vn -0.3175 -0.9197 0.2310
vn -0.3398 -0.9023 -0.2655
vn 0.1027 -0.9128 -0.3953
vn 0.9090 -0.2567 0.3285
vn 0.0796 -0.2550 0.9637
vn -0.9172 -0.2739 0.2892
vn -0.5872 -0.2466 -0.7710
vn 0.5117 -0.2727 -0.8147
vn 0.7845 -0.0926 0.6131
vn -0.2502 -0.0989 0.9631
vn -0.9933 -0.0990 -0.0594
vn -0.3398 -0.0926 -0.9359
vn 0.8043 -0.1036 -0.5851
vn 0.4629 0.5400 0.7029
vn -0.4891 0.5837 0.6481
vn -0.7605 0.5530 -0.3404
vn -0.0067 0.5571 -0.8304
vn 0.7944 0.5808 -0.1776
vn 0.3175 0.9197 -0.2310
vn 0.5503 0.7327 -0.4003
vn 0.4139 0.5805 -0.7012
vn -0.1472 0.9022 -0.4055
vn -0.2461 0.6930 -0.6777
vn -0.5248 0.5400 -0.6580
vn -0.4073 0.9130 -0.0243
vn -0.6958 0.7170 -0.0416
vn -0.7671 0.5840 0.2656
vn -0.1027 0.9128 0.3953
vn -0.1754 0.7166 0.6751
vn 0.0884 0.5526 0.8287
vn 0.3398 0.9023 0.2655
vn 0.5679 0.6932 0.4438
vn 0.7874 0.5575 0.2631
vn 0.9172 0.2739 -0.2892
vn 0.7989 0.1552 -0.5812
vn 0.5577 0.2737 -0.7836
vn -0.0796 0.2550 -0.9637
vn -0.3380 0.1389 -0.9309
vn -0.5509 0.2466 -0.7973
vn -0.9090 0.2567 -0.3285
vn -0.9872 0.1484 -0.0590
vn -0.9327 0.2729 0.2357
vn -0.5117 0.2727 0.8147
vn -0.2487 0.1482 0.9572
vn 0.0312 0.2564 0.9661
vn 0.5872 0.2466 0.7710
vn 0.7803 0.1390 0.6098
vn 0.8917 0.2552 0.3738
vn 0.2502 0.0989 -0.9631
vn 0.2487 -0.1482 -0.9572
vn -0.0312 -0.2564 -0.9661
vn -0.7845 0.0926 -0.6131
vn -0.7803 -0.1390 -0.6098
vn -0.8917 -0.2552 -0.3738
vn -0.8043 0.1036 0.5851
vn -0.7989 -0.1552 0.5812
vn -0.5577 -0.2737 0.7836
vn 0.3398 0.0926 0.9359
vn 0.3380 -0.1389 0.9309
vn 0.5509 -0.2466 0.7973
vn 0.9933 0.0990 0.0594
vn 0.9872 -0.1484 0.0590
vn 0.9327 -0.2729 -0.2357
vn 0.4891 -0.5837 -0.6481
vn 0.1754 -0.7166 -0.6751
vn -0.0884 -0.5526 -0.8287
vn -0.4629 -0.5400 -0.7029
vn -0.5679 -0.6932 -0.4438
vn -0.7874 -0.5575 -0.2631
vn -0.7944 -0.5808 0.1776
vn -0.5503 -0.7327 0.4003
vn -0.4139 -0.5805 0.7012
vn 0.7671 -0.5840 -0.2656
vn 0.6958 -0.7170 0.0416
vn 0.4073 -0.9130 0.0243
vn 0.0067 -0.5571 0.8304
vn 0.2461 -0.6930 0.6777
vn 0.5248 -0.5400 0.6580
vn -0.9982 0.0000 -0.0597
vn -0.0574 0.0000 -0.9984
vn 0.9982 0.0000 0.0597
vn 0.0574 0.0000 0.9984
usemtl None
s off
f 1/1/1 2/2/1 4/3/1 3/4/1
f 3/4/2 4/3/2 8/5/2 7/6/2
f 7/6/3 8/5/3 6/7/3 5/8/3
f 5/8/4 6/7/4 2/9/4 1/10/4
f 3/11/5 7/6/5 5/8/5 1/12/5
f 8/5/6 4/13/6 2/14/6 6/7/6
f 9/15/7 22/16/7 21/17/7
f 10/18/8 22/19/8 24/20/8
f 9/21/9 21/22/9 26/23/9
f 9/24/10 26/25/10 28/26/10
f 9/27/11 28/28/11 25/29/11
f 10/18/12 24/20/12 31/30/12
f 11/31/13 23/32/13 33/33/13
f 12/34/14 27/35/14 35/36/14
f 13/37/15 29/38/15 37/39/15
f 14/40/16 30/41/16 39/42/16
f 10/18/17 31/30/17 34/43/17
f 11/31/18 33/33/18 36/44/18
f 12/34/19 35/36/19 38/45/19
f 13/37/20 37/39/20 40/46/20
f 14/40/21 39/42/21 32/47/21
f 15/48/22 41/49/22 46/50/22
f 16/51/23 42/52/23 48/53/23
f 17/54/24 43/55/24 49/56/24
f 18/57/25 44/58/25 50/59/25
f 19/60/26 45/61/26 47/62/26
f 47/62/27 50/63/27 20/64/27
f 47/62/28 45/61/28 50/63/28
f 45/61/29 18/57/29 50/63/29
f 50/59/30 49/65/30 20/66/30
f 50/59/31 44/58/31 49/65/31
f 44/58/32 17/54/32 49/65/32
f 49/56/33 48/67/33 20/68/33
f 49/56/34 43/55/34 48/67/34
f 43/55/35 16/69/35 48/67/35
f 48/53/36 46/70/36 20/71/36
f 48/53/37 42/52/37 46/70/37
f 42/52/38 15/48/38 46/70/38
f 46/50/39 47/72/39 20/73/39
f 46/50/40 41/49/40 47/72/40
f 41/49/41 19/60/41 47/72/41
f 32/47/42 45/61/42 19/60/42
f 32/47/43 39/42/43 45/61/43
f 39/42/44 18/57/44 45/61/44
f 40/46/45 44/58/45 18/57/45
f 40/46/46 37/39/46 44/58/46
f 37/39/47 17/54/47 44/58/47
f 38/45/48 43/55/48 17/54/48
f 38/45/49 35/36/49 43/55/49
f 35/36/50 16/69/50 43/55/50
f 36/44/51 42/52/51 16/51/51
f 36/44/52 33/33/52 42/52/52
f 33/33/53 15/48/53 42/52/53
f 34/43/54 41/49/54 15/48/54
f 34/43/55 31/30/55 41/49/55
f 31/30/56 19/60/56 41/49/56
f 39/42/57 40/46/57 18/57/57
f 39/42/58 30/41/58 40/46/58
f 30/41/59 13/37/59 40/46/59
f 37/39/60 38/45/60 17/54/60
f 37/39/61 29/38/61 38/45/61
f 29/38/62 12/34/62 38/45/62
f 35/36/63 36/74/63 16/69/63
f 35/36/64 27/35/64 36/74/64
f 27/35/65 11/75/65 36/74/65
f 33/33/66 34/43/66 15/48/66
f 33/33/67 23/32/67 34/43/67
f 23/32/68 10/18/68 34/43/68
f 31/30/69 32/47/69 19/60/69
f 31/30/70 24/20/70 32/47/70
f 24/20/71 14/40/71 32/47/71
f 25/29/72 30/41/72 14/40/72
f 25/29/73 28/28/73 30/41/73
f 28/28/74 13/37/74 30/41/74
f 28/26/75 29/38/75 13/37/75
f 28/26/76 26/25/76 29/38/76
f 26/25/77 12/34/77 29/38/77
f 26/23/78 27/35/78 12/34/78
f 26/23/79 21/22/79 27/35/79
f 21/22/80 11/75/80 27/35/80
f 24/20/81 25/76/81 14/40/81
f 24/20/82 22/19/82 25/76/82
f 22/19/83 9/77/83 25/76/83
f 21/17/84 23/32/84 11/31/84
f 21/17/85 22/16/85 23/32/85
f 22/16/86 10/18/86 23/32/86
f 51/78/87 52/79/87 54/80/87 53/81/87
f 53/81/88 54/80/88 58/82/88 57/83/88
f 57/83/89 58/82/89 56/84/89 55/85/89
f 55/85/90 56/84/90 52/86/90 51/87/90
f 53/88/5 57/83/5 55/85/5 51/89/5
f 58/82/6 54/90/6 52/91/6 56/84/6
